<svg id="Слой_1" data-name="Слой 1" xmlns="http://www.w3.org/2000/svg" viewBox="0 0 839 1512"><defs><style>.cls-1{fill:#bbe7fc;}</style></defs><title>gauranga icons</title><path class="cls-1" d="M764.29,1062c-10.32-1.4-20.65-2.7-31-4-12.13-1.57-24.33-2.75-36.37-4.81-14.41-2.47-29,6.76-31.21,21-1.76,11.1-2.83,22.31-4.23,33.46-1.72,13.78-3.19,27.6-5.27,41.33-1.92,12.66,6.31,26,18.91,28.63,8.08,1.67,16.36,2.31,24.56,3.38,11.48,1.49,23,2.91,34.44,4.4,11.64,1.51,23.27,3.09,34.9,4.6,11.31,1.47,22.63,2.87,33.95,4.35,12.14,1.59,24.18,4.09,36.52,3.65v-8c-3.22,3.5-7.42,2.63-11.27,2.16-12.89-1.58-25.77-3.32-38.66-5-35.19-4.58-70.36-9.25-105.56-13.73-6.78-.86-13-2.56-17.67-8.13-3.6-4.34-5.45-9.34-4.77-14.82,3-24.46,6-48.94,9.66-73.31,1.85-12.2,11.44-19.46,23.33-18.51,6.92.55,8,1.88,7.13,8.86-2.23,18.19-4.95,36.31-7.06,54.51-.12,1-.34,2-.37,3-.09,3.39,1.08,6.05,4.74,6.5,3.45.42,5.17-1.81,5.83-4.91,1.11-5.22,1.52-10.55,2.21-15.83,1.81-13.87,3.73-27.73,5.5-41.61.34-2.63-.07-6.28,3.53-7a16.94,16.94,0,0,1,11.61,1.73c2.24,1.23,1.73,3.76,1.47,5.92-2.11,17.53-4.59,35-6.76,52.54-.2,1.65-.5,3.3-.61,5-.3,4.61,1.24,7.28,4.44,7.75s5.3-1.6,6.25-6.37c1.17-5.89,1.65-11.88,2.44-17.82,1.75-13.21,3.4-26.44,5.2-39.64.69-5.1,1.83-6.15,6.84-5.59,8.94,1,17.89,2,26.75,3.48,5.61,1,6.29,2.05,5.59,7.8-2.17,17.86-4.72,35.67-6.91,53.53a25.32,25.32,0,0,0-.31,6c.31,2.75,1.6,4.87,4.48,5.24s4.54-1.59,5.56-4.08a19.18,19.18,0,0,0,1-4.88c2.3-17.68,4.57-35.35,6.93-53,.37-2.78.22-6.31,3.44-7.16a14,14,0,0,1,11.51,1.64c2.49,1.7,2,4.79,1.66,7.42-2.23,15.5-3.91,31.07-6.24,46.55-.5,3.3-.82,6.61-1.2,9.92-.48,4.19,1.26,6.69,4.5,7.1s5.59-1.52,6.2-5.7c2.22-15.16,4.19-30.36,6.1-45.57.58-4.63,1.19-9.25,2-13.84.55-3,2.31-4.26,5.21-4.32a23,23,0,0,1,3,.14c7.9.89,8.58,1.55,7.65,9.28-2,16.7-4.3,33.37-6.5,50.05-.31,2.32-.54,4.63-.68,7-.18,2.87.41,5.47,3.46,6.48s5.07-.58,6.59-3.12c.64-1.07.92-2.62,2.7-2.49v-71c-13.61-1.72-27.24-3.37-40.84-5.17C787.19,1065.32,775.75,1063.6,764.29,1062Z"/><path class="cls-1" d="M817.47,282.48c-3.08,1.24-6.14,2.56-9.29,3.61-4.12,1.38-8,3.64-12.37,4.22A7.85,7.85,0,0,1,796,286c2-8.21,3.84-16.47,6-24.66.84-3.25.43-6.13-2.93-6.75-3.06-.56-4.93,1.63-5.68,4.93-2.47,10.83-5.33,21.58-7.7,32.43-.54,2.48-1.44,3.62-3.75,4.5-13.67,5.2-27.34,10.4-40.83,16-3.6,1.5-6,1.12-9.06-1-8.71-6.11-17.68-11.84-26.48-17.82-2.8-1.9-5.57-2.08-7.41.71-1.74,2.65-.38,5,2.28,6.67,3.24,2,6.41,4.17,9.58,6.31,5.14,3.47,10.26,7,16.16,11l-25.62,9.88c-5.92,2.29-10.41,8.89-9.71,14.3.94,7.27,5.81,12.87,12.61,13.37,3.73.27,5.6,2,7.46,4.8q14.83,22.18,29.87,44.22a15.58,15.58,0,0,0,19.19,6c9.12-3.58,18.31-7,27.39-10.7,17.38-7.09,35.24-13,52.18-21.14V335c-2.57-9-3-18.3-4.67-27.43-.5-2.75,3.21-4.26,4.67-6.57V288C832.48,279.17,828.28,278.12,817.47,282.48ZM706.28,346.92c-3.74.27-5.4-1.36-6.1-3.74-.9-3.11,1-5.13,3.59-6.24,5.64-2.43,11.38-4.63,17.1-6.88,3.4-1.34,6.91-2.42,10.22-4a7.2,7.2,0,0,1,7.05.18c3.93,2.06,6.58.87,6.93-3.5.19-2.36,1.38-2.8,2.82-3.37,10-3.95,20.12-7.83,30.19-11.72,2.12-.82,3.84-1.72,6.09.7s5.88,1.08,6.75-2.66c.73-3.16,2.54-4.15,5.19-5.15,8.7-3.29,17.32-6.79,25.94-10.3,3.38-1.38,6.47-1.19,8,2.32,1.69,3.78-.22,6.15-4,7.61Q785,316.17,744,332.3q-16.47,6.45-32.94,12.9C709.19,345.92,707.3,346.55,706.28,346.92Zm121,28.62L785.1,392c-8.5,3.32-17,6.62-25.49,10-6.17,2.45-9.24,1.74-12.82-3.52-9.52-14-18.91-28.1-28.46-42.08-1.89-2.77-1.73-3.87,1.65-5.18,32.79-12.73,65.52-25.65,98.26-38.52,1.24-.49,2.52-.85,3.73-1.41,3-1.37,4.08-.15,4.54,2.84,2.54,16.67,5.2,33.32,7.81,50,.13.82.15,1.65.1,1.09C834.78,371.7,831.42,373.94,827.31,375.54Z"/><path class="cls-1" d="M427.31,1348c-16.93-1.86-31.18,5.56-38.4,20.1-4.39,8.84-6.37,18.52-9.37,27.83-1.84,5.73-5.14,9-10.79,10.44-13.8,3.63-27.55,7.4-41.32,11.15-1.48.4-3.17,1-4.34,0-6.23-5.18-12.79-3.1-19.37-1.17-9.08,2.65-13.29,9.59-10.92,18.78,3.06,11.88,6.54,23.65,9.73,35.49,3.71,13.75,7.32,27.53,11,41.3h8q-8-28.75-15.93-57.5c-1.85-6.71-3.68-13.43-5.43-20.17-1.59-6.15-.26-8.56,5.64-10.56,1.1-.37,2.2-.75,3.32-1.08,6.75-2,10.08-.28,11.92,6.42q9.33,34,18.49,68.12c1.3,4.82,4.25,9.6,1,14.76h8c.64-1.34,1.8-1.7,3.17-2.07q35.33-9.47,70.62-19.07c20.41-5.54,33.68-18.06,37.75-39.24.77-4,.15-8.32.71-12.42,1.61-11.89.92-23.89,1.36-35.81.35-9.63-2.19-19.36-4.86-28.8C453.31,1360.65,440.8,1349.51,427.31,1348Zm-34.49,31.36c2.78-11.8,9.66-20,21.44-23.27s22,.53,30.11,9.46c5.56,6.15,7,14.12,8.36,22.61.61,1.83-.82,2-2.53,1.74-13.75-1.85-27.5-3.75-41.26-5.57-4.26-.56-8.55-1-12.83-1.36C393.88,1382.77,392.14,1382.31,392.83,1379.39Zm52.12,89a40,40,0,0,1-20.6,13.93c-3.84,1.18-4.87-.17-4.82-3.63.18-13.43,4.33-25.34,13.28-35.5a47.66,47.66,0,0,1,20.52-13.69C454,1443.53,453.9,1456.82,444.95,1468.36Zm.86-43.69c-22.3,10.36-33,28.8-33.31,53.31-.09,7.77,0,7.7-7.54,9.74q-25.44,6.9-50.84,13.94c-3.26.9-5,1-6.15-3.31-6-23.09-12.43-46.08-18.9-69-.94-3.33.08-4.5,3.07-5.3,13.12-3.54,26.17-7.38,39.34-10.75,7.68-2,12.4-6.55,14.82-13.93,3.17-9.65,3.21-9.61,13.11-8.39q25.12,3.09,50.24,6.12c3.47.42,5.49,1.81,4.93,5.78-.32,2.29-.06,4.65-.06,8.27C456.15,1417.45,453.19,1421.24,445.81,1424.67Z"/><path class="cls-1" d="M758.44,716.06q-22.95,31.34-46,62.58-23.89,32.5-47.72,65c-7,9.64-5.5,18.57,3.94,25.4,4.3,3.11,8.57,6.28,12.85,9.42,15.11,11.11,30.13,22.35,45.37,33.29,7.64,5.48,16.63,3.88,22-3.43,23-31.3,45.86-62.7,69-93.87,7.11-9.56,13.52-19.67,21.6-28.5v-7c-2.92,8-8.94,14-13.82,20.62q-36,49.2-72.13,98.34c-.49.67-1,1.33-1.52,2-3.52,4.52-4.28,4.64-8.88,1.3-16.85-12.23-33.54-24.69-50.36-37-6.86-5-13.62-10.16-20.57-15.05-4.93-3.48-5.11-4.67-1.44-9.63q42.48-57.49,84.65-115.19c.3-.4.59-.81.89-1.21,4.53-6,4.69-6,10.56-1.7,23,16.77,45.91,33.75,68.92,50.54a12.41,12.41,0,0,1,3.69,4V762c-1.92,1.31-3.75,1-5.52-.29Q805.7,741,777.44,720.29c-1.39-1-2.68-2.43-1.27-4.18s3.19-1.3,4.86-.08q12.21,9,24.43,18l34,25v-7c-18.08-13.23-36.23-26.37-54.21-39.74C774.76,704.43,766.14,705.55,758.44,716.06Z"/><path class="cls-1" d="M765.86,1291.71c-6.34-9.4-14.48-14.86-26-16.19-17.91-2.08-35.79-4.56-53.54-7.67-13.17-2.3-24,1.36-34.28,9.33-15.32,11.92-30.93,23.46-46.41,35.17-9.7,7.34-14.37,17.12-14.16,29.25.17,10.06,3.76,19.49,5.54,29.25.54,2.95.47,4.86-2.32,6.74-5.36,3.61-10.36,7.75-15.57,11.59-13.67,10.09-14.54,27.95-7.5,38.24,6.93,10.12,14.68,19.68,22.12,29.44,4.67,6.13,10.28,6.79,16.29,2,2.21-1.76,4.36-3.59,6.6-5.31,1.86-1.42,3.44-2.21,6.09-.67,4.32,2.51,9.23,3.77,13.56,3.17,13.27.54,22-5.71,28.36-15.63,3.62-5.63,4.41-12.13,3.81-18.74-.28-3.13.79-5.1,3.44-7q24.67-18.13,49-36.75c2.56-2,4.4-2.36,7.53-1.19,19.68,7.38,41-4.31,42.37-25.13.69-10.63,3-17.61,11.73-23.39,4.35-2.89,4.29-8,1.08-12.5C777.8,1307.63,771.41,1299.95,765.86,1291.71ZM650.44,1304.6c6.09-4.57,12.12-9.24,18.35-13.61a12.57,12.57,0,0,1,7.59-2c9.93.25,19.54,2.74,29.37,3.62l.13,1.3q-20.18,15.24-40.34,30.49c-2.08,1.58-3.4,1.12-4.85-.94-3.44-4.87-7-9.69-10.7-14.32C648.39,1307.13,648.69,1305.91,650.44,1304.6Zm-31.12,23.47a102.43,102.43,0,0,0,9.16-6.81c2.13-1.86,3.29-2,5,.52,3.26,4.78,6.73,9.44,10.38,13.93,1.74,2.15,2,3.35-.48,5.13-8.3,6-16.46,12.27-24.61,18.5-1.5,1.15-2.73,1.71-3.13-.65-1-5.69-3.08-11.17-3.17-14.92C612.43,1335.95,614.55,1331.37,619.32,1328.06Zm17.5,107c-6.21,0-10.4-4.16-10.32-10.19s4-9.89,10-9.9c5.68,0,10.85,4.72,10.9,10C647.47,1430.49,642.67,1435.07,636.82,1435Zm102.64-77c-6.24,0-10-3.93-10-10.41-.92-6.17,5.52-10.42,10.23-10.46,5.34,0,9.93,5.27,9.85,11C749.46,1354.21,745.55,1358,739.46,1358Zm18.31-37.34c-1.51,1.59-3,.38-4.53-.33-10.87-5.19-21.59-5.11-31.69,1.69-9.16,6.17-13.65,15.13-14.13,26.39.14,1.26-.06,2.91.54,4.19,2.53,5.37,0,8-4.33,11.12-15.32,11.08-30.31,22.62-45.32,34.14-1.94,1.49-3.14,1.55-5.18.32-21-12.6-45.91,1-47.62,25.88-.18,2.56.71,4.91.95,7.38.14,1.48.38,3.23-1.28,4-1.88.85-2.6-.94-3.45-2.07-3.49-4.64-6.9-9.35-10.39-14-4.3-5.69-3.8-10,1.9-14.5,3.92-3.07,8-6,11.93-9l126.67-95.72c5.26-4,9.19-3.83,13.41,1.16,4.06,4.81,7.69,10,11.42,15.07C757.55,1317.62,759.5,1318.85,757.77,1320.67Z"/><path class="cls-1" d="M278,664.07c-2.78,5.08-1.93,7.39,3.06,10.17q52,29,104.07,58c6.92,3.85,9.4,3,13.12-3.71,13.66-24.73,27.44-49.4,41-74.17,2-3.63,3.43-3.05,5.65-.34q5.34,6.56,11,12.82c4.23,4.66,8.59,4.21,11.62-1.19q11.58-20.66,23-41.39c1.42-2.56,1.45-5-.62-7.35-1.87-2.11-3.64-4.31-5.51-6.43-7.59-8.58-14.92-17.41-22.91-25.61-5.53-5.67-9.57-12.84-16.82-16.84-13.38-7.4-26.58-15.11-40.06-22.33-6.84-3.66-13.11-8.69-21-10.14-19.37-3.57-38.75-7-58.13-10.54-3.3-.6-5.45,1.06-6.93,3.73-7.48,13.53-15,27-22.33,40.64-3.53,6.55-2.26,9.08,5.23,10.72,6.72,1.47,13.5,2.62,20.64,4-3.75,6.79-7.18,13-10.64,19.28C300.36,623.64,289.09,643.81,278,664.07ZM385.57,554.38c1.69-5.51,2.34-5.93,7.44-3.1,13.63,7.56,27.18,15.28,40.84,22.79,2.86,1.57,2.89,2.76,1,5.26C429.2,586.64,422.95,590,414.11,590,397.62,589.23,379.41,574.44,385.57,554.38Zm-54.44,20.67c-7.58-1.62-15.21-3-23.41-4.61,4.57-8.32,9-16.44,13.5-24.56.16-.29.41-.53.59-.81,5.57-9,5.54-8.86,15.92-6.9,11.22,2.12,22.5,4,33.76,5.86,5.91,1,5.93.88,4,6.47-5.63,16.4.14,32.51,15.38,42.4,13.85,9,28.14,11.56,43.05,2.38a32.29,32.29,0,0,0,9-8.58c1.88-2.57,3-3.07,5.23-.57,7.12,8.11,14.35,16.14,21.53,24.2,2.65,3,5.29,6,8,8.91,1.51,1.65,1.88,3.19.66,5.32-5.34,9.4-10.54,18.88-15.76,28.34-1.26,2.29-2.31,2.28-4,.25-4-4.7-7.93-9.42-12.29-13.74-4.68-4.63-8.59-3.91-11.83,1.9q-20.07,35.93-40,72c-5.18,9.42-5,9.28-14.36,3.88-16-9.21-32.2-18.06-48.34-27q-19.19-10.66-38.43-21.24c-2.88-1.59-4.32-2.82-2.07-6.78,14.15-24.86,27.87-50,41.72-75a31,31,0,0,0,2-4C336.39,579.14,335.66,576,331.14,575.05Z"/><path class="cls-1" d="M674.66,647.49q20.92-14.83,41.7-29.87c11.17-8.06,22.38-16.07,33.36-24.38,5.11-3.87,5.09-7.35.55-12q-16.48-16.7-32.78-33.57c-16.53-17.14-33.57-33.79-50.4-50.65-9.12-9.14-9.12-9.13-1.66-19.94.28-.41.52-.85.8-1.27,3.09-4.68,2.92-7.5-.95-11.5s-8-8-12-12.05c-1.47-1.5-3-2.64-5.17-2.29-3.45-.38-5.22,1.73-6.76,4.26s-.79,4.89.9,6.9a38.16,38.16,0,0,0,6,6c3.3,2.49,3,4.72.74,7.77-15.38,20.62-30.64,41.33-46,62-5.14,6.93-10.4,13.77-15.57,20.69-4.22,5.65-3.95,8.85,1,13.84,5.25,5.33,10.31,10.85,15.52,16.2,19.31,19.79,39,39.24,58.51,58.8C666.89,650.92,669.43,651.19,674.66,647.49Zm-71.14-80.86c-3-3-1.35-4.94.35-7.19Q618.41,540.17,633,521c4.51-6,9.13-11.83,13.38-18,2.07-3,3.46-3.29,6-.57,25.79,27.16,52.48,53.44,78.89,80,.8.8,1.86,1.47,1.9,2.83a7.26,7.26,0,0,1-2.95,3.25c-19,14.16-38.15,28.21-57.07,42.53-2.82,2.14-4.35,2-6.6-.42C646.21,608.67,624.72,587.79,603.52,566.63Z"/><path class="cls-1" d="M578.86,1062.41c1.16-2.28,1.55-5.1,4.31-6.44,15.21-7.39,16.85-23.11,22.3-36.49a.94.94,0,0,0,0-.5c-.65-3.44.8-5.18,4.2-5.94,5.19-1.15,7.69-5.09,8.72-9.89s-.75-9.82-5.07-11.48c-6.92-2.66-5.83-7.73-5.8-12.87,0-2.33,0-4.67,0-7,0-4.17-.13-8.34.05-12.5.13-3-.89-4.81-3.42-6.57-25.45-17.72-52.69-31.65-82.7-40-2.39-.66-4.18-.51-6,.93-6.64,5.25-13.44,10.32-19.82,15.88-2.62,2.29-4.45,2.37-7.42.87-8.26-4.16-18.68,1.9-17.31,10.89,1,6.42.12,10-4.16,15.07-5.16,6-8,14.1-11.53,21.47-1.66,3.52-3.48,7.38-2.06,11.46a11.87,11.87,0,0,1-1.4,11.27,27.83,27.83,0,0,0-2.64,5.37c-1.91,4.88-.79,9.35,3.1,11.34,6.07,3.11,12.2,6.12,18.45,8.85s9.33,1.73,12.39-4.41c1.43-2.87,2.37-3.55,5.38-1.54a191.73,191.73,0,0,0,51.05,24.59c4.23,1.28,5.78,2.52,3.22,7-2.87,5-1.27,8.64,4,11.32,4,2,8,4,12.07,6C571.4,1075.4,572.47,1075,578.86,1062.41ZM504,933.3q7.2-5.72,14.35-11.5c1.47-1.19,2.78-.34,4.2.05,26.84,7.47,51.28,19.87,74.05,35.77a6,6,0,0,1,3,5.71c-.21,5.92-.07,11.85-.07,18.6-8.58-5.59-16.18-11.14-24.41-15.72-21.54-12-43.85-22.14-67.47-29.31-1.11-.34-2.23-.66-3.3-1.1C502.89,935.21,502.59,934.4,504,933.3Zm91.26,56.12c-9.48,4.74-18.12,5.24-27.46.35Q541.44,976,514.39,963.64c-9-4.11-12.14-11.46-14.87-20.71C534.19,953.71,566.31,967.86,595.24,989.42Zm-118.46,27c-.67,1.16-1.16,2.42-3.32,2.49l-7.55-3.75-4-2c-5.54-2.75-6-4.95-2.35-9.89.83-1.12,1.55-1.1,2.44-.51,4.7,3.06,9.39,6.13,14,9.29C477.63,1013.17,477.75,1014.72,476.77,1016.43Zm33.59,6.93c-15.73-8.69-30.45-19-45.49-28.81-3.76-2.45-4.73-7.49-2.52-12.16,3.2-6.78,6.7-13.41,10-20.13,1.73-3.5,5.19-5.2,8.06-7.29s2.6-3.7,1.43-6.2c-1-2.1-1.78-4.3-2.72-6.42a3.26,3.26,0,0,1,1.09-4,3.87,3.87,0,0,1,4.59-.68c3.47,1.64,5,4.69,6.43,7.95,2,4.73,3.87,9.57,6.21,14.15,3.56,7,10.34,10,17,13.19,16.66,8,33.5,15.63,49.88,24.16,9.53,5,18.68,6.28,28.66,2.25a46,46,0,0,1,9.09-2.6c3.46-.62,7.08.08,8,3.9s-2.57,4.53-5.27,5.28c-7.36,2.06-7.43,2-7.35,9.35a17.74,17.74,0,0,1-1.6,8.21c-3,6.29-5.81,12.7-8.65,19.08-1.78,4-4.8,5.8-9.23,5.45-4.3.46-7.95-1.91-11.83-3.27C547.35,1038.19,527.94,1033.07,510.36,1023.35Zm53.08,39.12c-3.4-1.69-6.83-3.35-10.2-5.1-1.58-.82-4.16-1.07-2.47-4.07,1.22-2.16,1.77-4.57,5.34-3.07,4.4,1.85,9,3.15,13.57,4.65,1.29.42,2.61.71,2.48,3.14C572,1062.42,568,1064.74,563.44,1062.48Z"/><path class="cls-1" d="M173.13,347.74c2.92,1.2,5.85,2.34,8.78,3.53,1.65.67,2.59,1.42,2.2,3.7-1.09,6.4,1.84,11.84,7.23,14.38,6.22,2.94,12.68,2.06,16.77-3,2.06-2.54,3.71-2.56,6.36-1.43,16.66,7.09,33.3,14.22,50.1,20.95,4,1.59,5,3.59,5,7.67,0,9.79,11.23,16.72,19.57,11.94,4.93-2.82,8.72-8.54,14.29-3.53,5.46.31,6.34-3.35,7.6-6.3q11.78-27.73,23.37-55.55c1.86-4.43,1.76-8.66-1.24-12.68-6.06-8.11-11.73-16.54-18.17-24.33-4.16-5-5.26-9.6-1.57-15.11,1.68-2.51.95-4.24-1.87-5.41C290.28,273.73,269,264.75,247.65,256c-2.92-1.2-4.82-2.5-6.12-5.64-4.5-10.88-15.26-16.38-26.74-14.24-12,2.24-20.84,16.27-17.58,28.16a9.45,9.45,0,0,1-.51,6.66c-9.32,22-18.48,44.11-27.77,66.14C166.72,342.31,167.87,345.57,173.13,347.74Zm24.73,15.19c-3.83.05-6.07-2.41-5.91-5.93.14-3.08,2.24-5.92,5.71-5.81s6,2,5.85,6.62C203.12,360.61,201.42,362.88,197.86,362.93Zm85.64,35.9c-3.34-.11-6.14-1.79-5.94-5.78.18-3.67,2.49-5.5,5.53-6,4.35.31,6.08,3,6.13,6.28A5.22,5.22,0,0,1,283.5,398.83Zm42.65-67.38a5.68,5.68,0,0,1,.69,6.08c-2.05,4.71-3.9,9.51-5.8,14.29-.7,1.76-1.64,2.06-3.45,1.28-7.76-3.35-15.6-6.54-23.41-9.79-1.85-.77-3.22-1.79-2.21-4.15,4.75-11.12,9.46-22.24,14.55-34.21C313.37,314.18,319.78,322.8,326.15,331.45Zm-106-87.58c8.59.43,15.41,6.61,15.23,15.06-.17,7.73-6.19,16-15.6,15.11-8.61,0-15.42-6.52-15.24-15C204.75,251.34,210.75,243.4,220.19,243.87Zm-25.91,53.54c2.7-6.07,5.22-12.22,7.72-18.38,1-2.45,1.79-2.79,4.22-1,10.63,7.64,29.44,5.83,35.5-10.68,1.48-4,3.11-4,6.47-2.51C265.75,272.31,283.4,279.62,301,287c1.28.54,3,.65,2.79,2.8-2,4.77-3.88,9.55-5.91,14.28-4.31,10.09-8.81,20.09-12.92,30.26-1.28,3.18-2.39,4.08-5.79,2.63q-41.28-17.57-82.72-34.77C193.88,301.13,193.09,300.09,194.28,297.41Zm-16.83,40.45c3.79-9.22,7.66-18.4,11.46-27.61,1.06-2.59,2.57-1.2,4-.6,13.35,5.53,26.72,11,40,16.6,24.35,10.22,48.64,20.61,73,30.7,11.31,4.68,11.34,4.4,6.29,15.58-2.53,5.6-4.72,11.35-7.13,17-.63,1.48-1.07,3.26-3.28,3.4-2.35-.78-4.33-1.79-5.46-4.48-3.59-8.55-10.67-11.42-19-7.87a5.41,5.41,0,0,1-4.7.13Q243.35,368.27,213.9,356c-1.8-.75-2.45-2.1-3.12-3.62-3.53-7.93-10.7-11-18.75-8.11-2.17.79-13.32-2.06-14.74-3.7C176.39,339.58,177.11,338.68,177.45,337.85Z"/><path class="cls-1" d="M205,1334.33c-18.09-10.23-36.32-20.2-54.45-30.35-21.18-11.85-42.23-23.93-63.54-35.53-5.28-2.88-10-7.34-16.32-7.56-5.35.41-9.77,2.06-12.43,6.65-4.42,7.62-8.68,15.33-13,23Q29.61,1318.37,14,1346.2c-3.5,6.23-7.16,12.39-10.4,18.75-4.15,8.14-2.07,15.33,5.62,20.17,3.37,2.12,6.92,4,10.41,5.91q23.33,13,46.66,25.92c3.44,1.92,3.85,4.67,1,7.1-2.51,2.18-4.38-.41-6.16-1.38-11.81-6.46-23.51-13.13-35.24-19.74-2.23-1.26-4.6-1.86-6,.8-1.23,2.28-.06,4,2.26,5.19,4.26,2.25,8.36,4.78,12.56,7.15q28,15.76,56.09,31.48c6.38,3.58,12.81,7.07,19.17,10.67,2.25,1.28,4.55,2,6-.61s-.3-4.35-2.51-5.62c-1.87-1.08-3.72-2.2-5.6-3.26-10.42-5.88-20.79-11.87-31.33-17.54-2.78-1.5-3-2.66-1.63-5.34,1.48-2.94,3-2.26,5.11-1.08,12.61,7.09,25.25,14.11,37.87,21.18,6.38,3.57,12.65,7.37,19.12,10.76,8.46,4.43,15.94,2.27,20.69-6.12q26.77-47.3,53.3-94.74C215.95,1347,213.8,1339.32,205,1334.33Zm-49,105.1c-1.7,2-2.59,4.63-4,6.86-3.5,5.41-6.5,6.38-12.11,3.31-15.16-8.29-30.21-16.78-45.29-25.21q-28.27-15.8-56.53-31.64-12.17-6.82-24.33-13.68c-2.83-1.59-4.71-3.7-4.3-7.29.76-5.77,4.44-10.2,7.37-14.94.83-1.35,2.17-.14,3.08.37q43,24.14,86,48.34,23.91,13.4,48,26.52C157.39,1434,159.23,1435.6,155.95,1439.43Zm44.33-79.21c-11.82,21.38-24,42.58-35.74,64-2,3.58-3.3,3.76-6.75,1.79-18.61-10.65-37.42-20.95-56.13-31.42q-35.67-20-71.3-40l-1.31-.72c-8.73-4.85-8.48-4.7-3.31-13.73,10.31-18,20.3-36.26,30.44-54.39,2.43-4.35,4.79-8.76,7.48-12.95,3.1-4.82,6.52-5.45,11.44-2.7q45.28,25.29,90.57,50.54c11.61,6.48,23.2,13,34.85,19.41,3.32,1.83,5.36,4.36,5.62,8.17C205.41,1352.78,202.43,1356.33,200.28,1360.22Z"/><path class="cls-1" d="M295.19,1050.91c6-1,10.06-4.7,12.36-10.4,1.78-4.4.58-8.18-2.21-11.57-1.83-2.22-4.24-2.5-6.72-1-2.16,1.33-3.63,3.25-2.61,5.79s1.5,4.64-1.28,5.9c-3,1.38-4-1.4-5.27-3.25-7.68-11.46-15.08-23.11-23.06-34.36-4.25-6-3.34-11.49-.28-17.24,2.83-5.31,7.53-7,13.34-6.93A26.58,26.58,0,0,1,289.61,980c4.69,2,8.31-.18,8.82-5.19.15-1.48,0-3,.06-4.49.25-6.07,2.76-11.16,8-14.13,4.93-2.8,10.06-1.56,14.46,1.84,2.68,2.07,5.31,2.06,7.67,0,2.66-2.3,1.76-5,.12-7.62-5.12-8.24-11-15.74-18.84-21.67-27.26-20.57-56.7-24.22-88.31-11.76-2.77,1.09-5.46,3.53-8.13,3.44-3.07-.1-3.72-4.24-5.59-6.49-2.09-2.51-4.53-2.47-7.15-1-2.83,1.55-3.48,3.9-2.13,6.72a20.27,20.27,0,0,0,2.85,4.64c2.23,2.55,1.38,4.2-.94,6.11-20.72,17-29.93,39.5-31.07,65.77a86,86,0,0,0,4.12,25.49,71.76,71.76,0,0,0,13.1,25c1.79,2.19,3.9,3.07,6.56,1.47,2.35-1.42,3.63-3.28,2.77-6.19-2.64-9,1-15.11,9.95-18,5.45-1.74,9.75.32,14.09,2.84a5.44,5.44,0,0,0,6.08-.36,4.92,4.92,0,0,0,2.08-5.21c-1.48-10.25,1.18-14.89,11-19.63,6.94-3.34,12.56-1.86,16.78,4.46,8.48,12.72,17.05,25.38,25.33,38.23C284.68,1049.61,289.26,1051.88,295.19,1050.91Zm-41.75-64.47c-.51,2.1-1.07,3.22-4,2.85A30,30,0,0,0,217.71,1009c-1.13,3.07-2.19,3.57-5.62,3.34-8.43-.56-15.91,2.57-22,8.58-3.84,3.76-3.86,3.74-5.58-1.55-13.9-42.58,12.49-87.94,56.76-97,24.8-5.1,52,3.67,68,21.26-11.21,2.46-17.77,9.32-20.86,19.65-.84,2.8-2.06,4.2-5.23,3.71C267.55,964.51,256.34,974.6,253.44,986.44Z"/><path class="cls-1" d="M636.41,90.68c-1.57,5.86-.69,11.89-1.42,17.83-.75,6.18-2.27,12.86.77,18.64,5.95,11.31,12.59,22.27,19,33.31,1.31,2.23,2.7,5.06,6,4.24s3.56-3.79,3.75-6.78c.67-10.35,1.54-20.68,2.35-31.17,3,.91,4.77,3.16,6.87,5,6.3,5.4,7.51,5.51,13.93,1.5,5.89-3.67,5.89-3.68,9.47,2.27,1,1.7,1.53,3.8,3.36,4.86s4,1.33,5.58-.15c2-1.86,1.54-4.17.31-6.42-1.51-2.75-4.49-5.91-4-8.24.64-2.79,5-3.76,7.86-5.45s4.3-3.72,3.37-7.37c-1-3.8-1.19-7.8-1.85-12.43,10.11,4.85,19.71,9.4,29.26,14.07,2.51,1.23,4.92,2.5,7.16-.18,2.09-2.51.94-4.88-.5-7.33C742.12,97.26,736.41,87.7,731,78c-2.74-5-6-8.86-11.48-11a181.79,181.79,0,0,1-16.68-7.87c-3.33-1.72-7.24-2.53-9.46-6.12-9.18-14.82-21-27.26-34-38.8C648.39,4.41,637-2.56,621.48-.16c-3.63.56-5.07,1-5.14,5.05-.53,28.44,5.3,55.37,18.43,80.67C635.6,87.17,636.9,88.82,636.41,90.68Zm21.35,37.71c-1,4.74-.73,9.85-1.62,15.34-11.81-15.52-13.25-20.74-11.4-41.19,3.13,2,4.37,5.39,6.84,7.51C657.35,115,659.34,120.67,657.76,128.38Zm75-28.17c-7.91-3.8-14.74-7.15-21.63-10.36-1.88-.87-2.63-2.32-3.24-4.1-1.83-5.33-3.74-10.63-5.6-15.91C714.54,71.28,724.77,81.21,732.74,100.21Zm-107-98a159,159,0,0,1,31.06,21.72C669,35,680,47.13,688.07,61.78c8.28,15,13.15,31.1,16.32,47.8.81,4.26-2.63,5.27-5.42,6.65-3.32,1.64-3.42-1.58-4.4-3.16-2-3.25-3.67-6.71-5.69-9.95-1.64-2.62-4.08-4.32-7.14-2.56-3.3,1.9-2.35,4.67-.72,7.32a98.34,98.34,0,0,1,5.29,9c.86,1.81,3.81,3.92,1,6-2.55,1.87-4.86,4.32-9,.87-22.46-18.92-39-41.63-46.77-70.22C627.05,37,624.38,20.18,625.72,2.19Z"/><path class="cls-1" d="M497.3,1229.55c-5,1.1-10.07,2-15.1,3.08-1.71.35-3.19.8-3.69-1.77q-5.93-30.24-12-60.44-4.6-22.91-9.31-45.79c-.6-2.88-1.34-4.89-5.66-3.94-23.12,5-46.35,9.62-69.55,14.3-28.39,5.73-56.79,11.39-85.17,17.16-2.79.57-4.51,1.69-3.69,5.55,4.42,20.74,8.38,41.58,12.61,62.36,3.14,15.41,6.46,30.79,9.8,46.66-6,1.14-12,2.21-18,3.46-3.37.7-4.76,3-3.92,6.3s3.29,2.59,5.65,2.09c8.1-1.71,16.19-3.43,24.3-5.08q47.92-9.78,95.85-19.51,39.9-8.09,79.81-16.13c2.63-.53,4.9-1.84,4.18-5.08S500.34,1228.89,497.3,1229.55Zm-80.2,20.05c-12,2.53-24,5-35.72,7.39-1.28-.06-2.55,0-2.63-1.28-.12-2,1.69-2.28,3.08-2.58,6.64-1.43,13.3-2.75,19.95-4.12,4.7-1,9.39-2,14.11-2.88,1.23-.23,2.9-.63,3.33,1.17C419.58,1248.79,418.17,1249.38,417.1,1249.61Zm51.11-20.46q-61.41,12.31-122.76,24.91c-6.82,1.39-13.69,2.59-20.42,4.36-3.51.92-4.85,0-5.53-3.36q-9.34-46-18.87-92c-.81-3.9.23-5.33,4.23-6.12,36.89-7.34,73.73-14.89,110.58-22.41,10.23-2.09,20.43-4.29,30.65-6.41a28.1,28.1,0,0,1,3-.31c2.69-.44,2.27,1.72,2.58,3.2,3.25,15.4,6.51,30.8,9.68,46.21,3.27,15.91,6.36,31.85,9.7,47.74C471.64,1227.77,471.12,1228.57,468.2,1229.15Z"/><path class="cls-1" d="M60.88,493.07c-16.29,18-22.33,39.4-19,63.08,2.9,20.62,12.37,38.07,29.23,51C86,618.46,102.61,624.6,121.54,623c11.32-.93,11.17-1.09,13.94,9.49,3.36,12.81.88,14.8,15,6.31s24.78-19.6,26.3-37.13a26.86,26.86,0,0,1,4.59-12.8c8.44-12.79,12.88-26.9,11.94-42.4,0-3.83.58-7.76-.1-11.47-3.43-18.65-11.23-35-25.8-47.72-13.38-11.72-28.85-18.49-46.51-19.19C97.24,467.18,77,475.26,60.88,493.07ZM177.4,515.12c5,9.85,7.85,20.46,7.2,29.91.16,17.94-5.24,32.1-15.27,44.54a7.83,7.83,0,0,0-1.78,6c1.2,15.8-7.92,25.69-19.55,34.16-2.21,1.61-3.65,1.07-4.29-1.56-1.1-4.51-2.22-9-3.26-13.54-.63-2.73-1.62-3.7-4.84-2.86C111.48,618,90,612.16,71.9,595.56c-13.45-12.35-20.6-28.29-21.42-46.78-.92-20.95,6-38.89,21.17-53.33a64,64,0,0,1,38.18-17.56C140.92,474.46,166.07,492.69,177.4,515.12Z"/><path class="cls-1" d="M6.42,82.58Q45,56.07,83.52,29.39c6.76-4.66,6.8-4.59,13.33.2,3.21,2.35,6.48,4.64,9.65,7,5.52,4.2,6.53,8.48,2.93,14.29A20.64,20.64,0,0,1,97.92,60c-5.88,1.89-11.43.86-16.81-1.57a5.55,5.55,0,0,0-.53,1.31c-.49,15-7.18,24.82-25.84,20.51-3.18-.74-3.76,1-4.37,3.75-2,9.07-5.05,17.39-16.28,18.72-3.66.43-6.91-.46-10.21-1.49-2.46-.77-3.34-.52-3.53,2.47-.7,10.68-6.17,17.29-16.56,20.38-2.55.76-3,2.19-3.42,4.64-.7,4.35,3.52,4.58,5.12,7,11,16.24,22.26,32.26,33.4,48.38,6.05,8.76,13.94,10.51,22.6,4.56q43.73-30,87.35-60.22c8.82-6.07,10.53-14.24,4.45-23.12Q136.53,80.8,119.52,56.52c-1.56-2.23-2.16-4.18-1.11-6.88,2.44-6.27.76-11.75-4-16.31C107.76,27,100,22.15,92.8,16.52c-2.27-1.78-3.59-.34-5.21.78L33.07,54.94q-15,10.33-29.9,20.69C1,77.16-.91,83.48.8,84.78,3.18,86.6,4.77,83.72,6.42,82.58Zm107.85-20c11.13,16.12,22.34,32.18,33.42,48.34,3.15,4.59,1.33,8.56-5.19,12.14h0c-1.12,2-3.31,2.68-5,3.94L119.5,139h0c-1.12,2-3.31,2.69-5,3.94h0Q86,162.63,57.52,182.32c-4.24,2.93-8.88,2.23-11.79-2C35,164.78,24.31,149.14,13.5,133.6c-1.7-2.44-1.75-3.78,1.06-5.36,5.91-3.32,9.4-8.79,11.9-14.88.86-2.09,1.65-2.55,4.19-2.72,11.5-.77,20.79-3.11,25-17.08,1.16-3.83,3.18-5,6.86-4.55,11.63,1.27,19.77-5.84,23.87-16.41,1-2.53,2.11-3.67,5-3.7a27.91,27.91,0,0,0,18.69-7C112.09,60.07,113,60.72,114.27,62.54Z"/><path class="cls-1" d="M423.39,311.3c8.9,24.32,17.56,48.73,26.4,73.07,3.68,10.12,4,10,14.28,6.29q52.18-19,104.43-37.8,22-8,44-16c2-.74,4.24-1.45,3.91-4.65-.37-1.14-.79-2.57-1.29-4q-13.33-37-26.66-74c-2.7-7.55-2.95-7.67-10.63-4.85Q550,259.59,522.13,269.63,474.6,286.83,427,303.91C423,305.34,421.88,307.16,423.39,311.3Zm13.85-3.14c17.41-6.09,34.75-12.36,52.1-18.61q43.15-15.53,86.27-31.11c1.25-.45,2.52-.84,3.9-1.29,2.18-.09,2.42,1.77,3,3.28q8.5,23.43,17,46.87c2,5.62,4,11.28,6.14,16.86,2.3,5.93,2.22,6.39-3.8,8.59q-18,6.59-36.09,13C531.78,358,497.79,370,464,382.49c-5.25,1.94-6.77-.06-8.23-4.14-7.39-20.65-14.66-41.34-22.37-61.87C431.56,311.65,432.78,309.72,437.24,308.16Z"/><path class="cls-1" d="M64.05,1159c12.46,8.83,24.95,17.62,37.31,26.57,3.09,2.24,5.26,1.44,7.18-1.21,9.14-12.64,18.18-25.36,27.34-38,2-2.79,1.3-4.94-1.11-6.76-3.18-2.4-6.63-4.45-9.71-7-3.35-2.72-5.78-1.69-7.91,1.37s-4.24,6.55-7.3,9.63c-.51-2.95-1-5.37-1.36-7.8q-5-30.11-10.06-60.21c-.46-2.74-1.65-4.55-5.09-3.85-4.7,1-9.49,1.44-14.21,2.28-2.76.49-3.89,2.3-3.42,5.09,2.52,14.84,5.06,29.67,7.52,44.52,1.24,7.47,2.33,15,3.73,24-4.31-3-7.52-4.94-10.44-7.27-2.48-2-4.57-1.86-6.46.49-2.5,3.1-4.67,6.46-7.27,9.47C59.77,1153.91,60.6,1156.56,64.05,1159Z"/><path class="cls-1" d="M304.37,144.73c6.51,1.11,13.14,1.54,19.71,2.27,10,1.13,20.05,2.23,30.07,3.4,12.81,1.5,25.6,3.11,38.41,4.58,10,1.15,20.1,1.91,30.08,3.34,8.24,1.18,14.29-2.45,15.69-10.46.62-3.58.75-7.24,1.17-10.86,1.2-10.18,2.48-20.35,3.65-30.53,1.19-10.35,2.3-20.71,3.34-30.07.07-9.16-2.77-13.85-9-15.18-3.22-.69-6.56-.85-9.84-1.22-9.86-1.11-19.73-2.14-29.59-3.32-12.64-1.5-25.26-3.14-37.89-4.67-13.62-1.65-27.27-3.07-40.86-4.91-8.68-1.18-15.66,2.16-16.69,9.41-2,14.07-3.48,28.22-5.15,42.34-1.19,10-2,20.08-3.58,30C292.68,136.9,296.36,143.35,304.37,144.73Zm-1.92-15.52c1.6-13,3-26,4.48-39,1.1-9.36,2.69-18.68,3.36-28.07.4-5.61,3.12-6.79,7.84-6.32C328.49,57,338.85,58.2,349.2,59.4c10,1.17,20,2.43,30.06,3.58,12.83,1.47,25.66,2.84,38.49,4.28,4.76.54,9.52,1.2,14.28,1.74,5.13.59,6.67,3,6,8-1.67,12.8-3.06,25.63-4.54,38.45-1.1,9.54-2.08,19.09-3.24,28.61-.57,4.64-3.33,6.49-8,5.89q-23.38-3-46.78-5.79c-12.66-1.5-25.33-2.82-38-4.21-9.54-1-19.09-2-28.62-3.17C304.5,136.31,301.83,134.27,302.45,129.21Z"/><path class="cls-1" d="M4.48,1228.83c13.67-2.31,27.35-4.64,41-6.83,3.46-.55,4.47-2.39,3.85-5.54-.25-1.3-.67-2.57-.84-3.88-.79-5.79-1.39-6.12-6.93-5.14-11,2-22.07,3.72-33.33,5.6a7.66,7.66,0,0,1,.2-1.82c7.25-16.62,15.16-32.94,24.88-48.24,3.17-5,4.66-9.47,3.28-15.27-.71-3-1.83-4.08-4.64-3.61-9.62,1.61-19.23,3.3-28.85,4.88-1.49.24-2.62.59-2.6,2.31,0,4.15-1.08,8.9.6,12.23,1.19,2.35,6-.41,9.18-.53,1.14,0,2.28-.17,4.2-.32-2.51,4.4-4.94,8.17-6.86,12.17-2.5,5.21-6.76,9.94-7,15.81-.52,11.63-.09,23.29-.2,34.94C.44,1228.69,1.83,1229.28,4.48,1228.83Z"/><path class="cls-1" d="M5.93,1104.3c-4.73.25-5.76,2.66-5.55,7.11.4,8.52.13,8.63,8.89,6.77,4.74-1,8.61-1.12,10.35,4.74.83,2.8,2.85,5.23,4.25,7.88.77,1.47,1.67,2.38,3.51,2,4.07-.74,8.17-1.35,12.24-2.07,3-.53,4.29-1.5,2.29-4.86-6.47-10.85-12.45-22-18.94-32.83C16.15,1081.73,9.2,1070.44,1,1059.85c-.18,14.22-3.36,28.86,7.31,41.06C10.73,1103.67,7.87,1104.2,5.93,1104.3Z"/><path class="cls-1" d="M8.86,747c18.38.72,35.84,5.11,51.66,14.58,24.94,14.91,40.17,36.25,41.88,66,.16,2.83.14,5.76,3.81,5.73s4.3-2.89,4.3-6a68.23,68.23,0,0,0-6.4-29.93c-18.42-38.17-51-54.48-91.36-58.44-1.33,0-2.66,0-4,0-2.84,0-5.16.92-5.13,4.07S6,746.93,8.86,747Z"/><path class="cls-1" d="M5.88,842.64c7.94,6.23,16,12.34,25.46,16.87-4.09,4-8.69,6-13.65,7.56s-9.91.35-14.78,1.76c-3.31,1-2.39,3.19-2.3,5.11.14,2.86,2.09,1.64,3.66,1.35a23.21,23.21,0,0,1,4-.3A42.63,42.63,0,0,0,39,862c5.6-5.58,6.06-9.2,1.95-16.22-8.84-15.06-21.89-26.1-35.24-36.84-1.31-1.05-3.09-3.3-4.54-2.16-1.65,1.3-.66,4-.51,6.14.07,1.05,1.13,1.52,1.9,2.17,4.31,3.61,8.57,7.3,12.84,11h0c8.77,7.49,16.19,16,21.65,27-4.42.28-7.11-1.9-9.93-3.69-2.53-1.6-5-3.23-7.56-4.82C16.73,842.8,14.88,841,16.3,837c1.15-3.27.23-6.93-1.79-10h0C12,825,9.58,823,6.34,822.44c-2.27-.42-4.56-.21-5.63,1.91C-1.7,829.14,1.32,839.06,5.88,842.64Zm-2.55-13c1.32-1.59,3.4-.14,4.83.88S10,833.36,9.75,836a28.34,28.34,0,0,1-4.28-2.8C4.43,832.23,1.91,831.3,3.33,829.59Z"/><path class="cls-1" d="M34.41,351.9c-2.81-.44-6,.84-9,2.79-10,6.42-14.93,21.65-10.81,33.21,4.88,13.66,18.73,16.88,29.47,7.15,7.53-6.82,11.59-22.5,6.67-32.57C47.58,356,42.92,351.8,34.41,351.9Zm11.24,20.27c-.46,8.5-3.07,14.57-8.9,19C32,394.78,26,393.47,23.14,388.27c-4.51-8.09-2.4-20,4.61-26,6.35-5.43,13.26-3.8,16.33,3.92C45,368.54,45.83,370.92,45.64,372.17Z"/><path class="cls-1" d="M73.38,806.8a39.48,39.48,0,0,1,3,15c0,3,.63,5.69,4,5.75,3.7.06,4.44-2.81,4.15-6,0-.5,0-1,0-1.5C84,805.57,78,793.21,68,783.3c-13.65-13.41-30.76-19.79-49.74-21.25-3.13-.24-6.42-.11-6.63,4.07-.23,4.54,3.33,4.88,6.57,4.79a47.56,47.56,0,0,1,14.7,2.18C51.21,778.44,65.88,788.38,73.38,806.8Z"/><path class="cls-1" d="M562.75,600.4c.22,9.29,9.23,18.47,18.71,18.55,9.64.08,18-8.32,18-18.13.08-9.65-8.55-18.57-18.18-18.79S562.52,590.69,562.75,600.4Zm28.81,0c0,6.77-3.74,10.68-10.26,10.62a10.64,10.64,0,0,1-10.8-10.6c0-6.5,4-10.47,10.59-10.45C587.82,590,591.52,593.68,591.56,600.4Z"/><path class="cls-1" d="M626.79,629c-9.61.17-17.37,8.38-17.31,18.32.06,9.69,8.91,18.93,18.48,18.51,10.05-.45,18.26-7.75,17.59-18.36A18.26,18.26,0,0,0,626.79,629Zm.82,29c-5.93,0-11-4.88-11-10.61a10.65,10.65,0,0,1,11-10.44,10.8,10.8,0,0,1,10.83,11.17C638.35,653.9,633.83,658,627.61,658Z"/><path class="cls-1" d="M.81,353.75c4.74-3.6,9.07-6.85,13.36-10.16q22.24-17.15,44.44-34.35c2-1.59,4.09-3.49,1.78-6.19-1.77-2.06-4-1.89-6.17-.21C37.85,315.55,21.64,328.46,5,340.77.13,344.36.19,348.3.81,353.75Z"/><path class="cls-1" d="M22.24,785a3.88,3.88,0,0,0-3.31,3.81A3.77,3.77,0,0,0,22.4,793a58.34,58.34,0,0,1,7.36,1.09c10.68,2.86,21.13,9.1,21.72,23.19.13,3,1.86,4.38,4.34,4.48s3.67-1.89,3.72-4.37c0-.83,0-1.66,0-2.5C59.37,798.66,37.88,781.5,22.24,785Z"/><path class="cls-1" d="M725.61,184.54c1.09,1.72,2.8,3,5.07,2.2,1.85-.69,2.92-2.14,2.82-4.94a12.32,12.32,0,0,0-.92-2.59c-5.86-10.39-11.69-20.79-17.72-31.07-1.36-2.31-3.49-4.42-6.55-2.31-2.9,2-2.62,4.64-1,7.42,3.49,6,6.91,12.07,10.4,18.09C720.28,175.77,722.86,180.21,725.61,184.54Z"/><path class="cls-1" d="M742.9,164.26a3.9,3.9,0,0,0,2.66-4.32,5.45,5.45,0,0,0-.26-2c-6.21-10.8-12.42-21.6-18.77-32.31-1.17-2-3.3-2.15-5.31-1s-3.29,3-2.12,5.38c1.31,2.68,2.86,5.25,4.36,7.84,4.67,8,9.32,16.1,14.06,24.1C738.69,164,740.36,165.24,742.9,164.26Z"/><path class="cls-1" d="M705.55,185.74c1.89-.46,3-2,2.89-4.27a5.41,5.41,0,0,0-.38-1.31c-6.13-10.82-12.21-21.67-18.5-32.4-1.37-2.33-3.92-2.46-6.16-1s-2.41,3.46-1.21,5.67c1.74,3.21,3.49,6.41,5.3,9.58,3.94,6.92,7.94,13.8,11.88,20.72C700.77,185.13,702.83,186.41,705.55,185.74Z"/><path class="cls-1" d="M17.48,836.7c-.52,3.58.79,5.63,3.53,7.44A85.23,85.23,0,0,0,34.75,852c-1.95-5.18-4.92-8.73-7.8-12.38C23.27,835,18.57,831.15,15.42,826l-.91.94C18.52,829.28,18,833.24,17.48,836.7Z"/><path class="cls-1" d="M.79,292.81v28.34C5.69,311.36,5.71,302.75.79,292.81Z"/><path class="cls-1" d="M.9,898.42a21,21,0,0,0-.08,8.16C3.06,903.69,3,901.36.9,898.42Z"/><path class="cls-1" d="M114.66,141.73c-.05.08-.11.16-.16.25h0q0,.48,0,1A1.09,1.09,0,0,0,114.66,141.73Z"/><path class="cls-1" d="M119.45,138a7.46,7.46,0,0,1-.72.56,3.89,3.89,0,0,0,.77.48h0Z"/><path class="cls-1" d="M142.48,122a8.19,8.19,0,0,1-.7.53,3.58,3.58,0,0,0,.72.51h0Z"/><path class="cls-1" d="M137.66,125.74c-.05.09-.11.16-.16.25h0q0,.48,0,1A1.13,1.13,0,0,0,137.66,125.74Z"/><path class="cls-1" d="M810.48,335c-.55-3.11-1.84-5.28-5.53-5-4.09.3-3.4,3.27-3.51,6.86,1.55,8.46,3.38,17.86,5,27.3.53,3.15,1.81,5.9,5.08,5.51,4-.47,4.43-4,3.85-7.36C813.79,353.16,812.1,344.07,810.48,335Z"/><path class="cls-1" d="M751.57,354.75c-1.32-2-3.38-3.26-6-1.75s-2.71,3.93-1.44,6q8.33,13.58,17.1,26.87a3.6,3.6,0,0,0,4.83,1.36c1.9-.93,3.4-2.1,3.43-4.72a8.08,8.08,0,0,0-.66-1.57C763.09,372.2,757.43,363.4,751.57,354.75Z"/><path class="cls-1" d="M775.11,342.36a4,4,0,0,0-2.43,5.34q5.31,13.9,11.05,27.63c.79,1.89,2.42,3.16,4.86,2.14a4.45,4.45,0,0,0,3.12-4.69c-3.65-9.89-6.9-20-11.69-29.41C779.05,341.47,776.86,341.64,775.11,342.36Z"/><path class="cls-1" d="M214.09,261.24c2.74,1.19,5.44,2.44,8.22,3.53,2,.77,3.2-.29,3.83-2.07.51-1.44,2.44-3.24.51-4.39-2.76-1.65-5-3-2.13-6.33-.58-2.54-2.8-2.58-4.54-3.29-1.49-.61-2.78-1.09-3.56,1-1,2.8-2.25,5.52-3.44,8.26C212.36,259.43,212.53,260.56,214.09,261.24Z"/><path class="cls-1" d="M82.14,1398q-6.8,0-6.69,7.24c.06,4.5,2.29,6.81,6.6,6.84,4.81,0,7.58-2.65,7.47-7.24C89.42,1400.41,86.77,1398,82.14,1398Z"/><path class="cls-1" d="M655.15,38c-9.27,0-15.68,6.32-15.69,15.54,0,8.91,6.85,16.16,15.42,16.3s15.65-7.25,15.67-16.05C670.58,44.31,664.44,38,655.15,38Zm0,22.5a6.76,6.76,0,0,1-6.64-6.56c-.16-4.45,2.1-6.9,6.44-6.94s6.45,2,6.63,6.24A6.77,6.77,0,0,1,655.11,60.48Z"/><path class="cls-1" d="M102.86,562.17c1.26-4.7,4-7.92,5.86-11.51,1.63-3.06-.4-3.88-2.43-4.72s-3.83-3.43-5.79.08c-4.21,7.55-8.52,15-12.81,22.54-1,1.78-1.41,3.17.89,4.49,7.77,4.48,15.45,9.13,23.15,13.73.84.5,1.51,1.21,2.61.34,3.59-2.83,3.38-7.7-.46-10-2.85-1.69-5.64-3.45-9.2-5.64,4.92-1.32,9.07-2.46,13.24-3.55q18.77-4.92,37.55-9.81c2.44-.63,3.94-1.19,3.28-4.63-.86-4.53-2.52-5.85-6.84-4.24-2.78,1-5.75,1.57-8.64,2.32Z"/><path class="cls-1" d="M118,507.79c3.41,1.94,6.7,4.1,10.77,6.62-2.41.72-3.91,1.22-5.44,1.62q-22.59,6-45.19,11.89c-1.38.36-3,.06-3,2.41-.05,5.78,2,7.58,7.36,6.17l48.93-12.79c-2.4,4.24-4.11,7.77-6.31,11-2.59,3.78.8,4.45,2.7,5.86,2.1,1.55,3.88,2.08,5.53-1,3.82-7.18,7.81-14.29,12.13-21.17,1.88-3,1.47-4.42-1.44-6.07-7.22-4.09-14.33-8.38-21.45-12.64-1.77-1.06-3.56-1.87-4.2.85C117.83,502.83,113.15,505,118,507.79Z"/><path class="cls-1" d="M63.62,112c-9.6,6.52-19.06,13.24-28.67,19.74-2.5,1.69-3.5,3.84-3.5,7.25-.28,1.56.52,3.37,1.68,5,5.19,7.49,10.36,15,15.63,22.44,2.46,3.47,6.17,4.51,9.62,2.37a333,333,0,0,0,32.18-22.45c2.53-2,3.72-5.51,1.78-8.47-5.45-8.31-11-16.55-17.05-24.47C71.76,108.75,68.53,108.61,63.62,112Zm20.8,28.42c-.19,1.64-1.28,2.13-2.24,2.79-8.05,5.55-16.13,11.07-24.09,16.76-2.25,1.61-3.68.92-5-1-4.14-6-8.15-12.1-12.39-18-1.29-1.81-1.06-3,.59-4.13,8.59-5.95,17.2-11.86,25.76-17.84,1.5-1.05,2.35-.58,3.25.72,4.44,6.4,8.92,12.78,13.36,19.18A9.1,9.1,0,0,1,84.43,140.37Z"/><path class="cls-1" d="M142.48,122c-.39,0-.77,0-1.13.08-6.65-10.1-13.68-20-20.58-29.89-6.34-9.13-11.78-10-21-3.91C98,89.45,96.21,90.67,94.53,92c-5.82,4.7-7.28,10.5-3.14,16.66,7.47,11.13,14.65,22.48,23.17,32.87,0,.14-.05.26-.06.41-3.33-.17-4-3.34-5.44-5.3-6.27-8.57-12.25-17.36-18.21-26.15-4.58-6.77-4.51-14,3.51-19.88,3.33-2.45,6.56-5.1,10.48-6.62,5-2,9.32-.93,13.19,2.87s6.15,8.25,9.14,12.42C132.48,106.72,137.4,114.41,142.48,122Z"/><path class="cls-1" d="M137.57,125.55c0,.15-.06.28-.07.44-2.09.07-2.67-1.65-3.6-3q-9.51-13.73-19-27.42c-3.77-5.46-5-5.75-10.38-2.2-10.72,7.1-10.75,7.11-3.65,17.5,6.18,9,12.41,18,18.62,27.08a11.13,11.13,0,0,0-1.2.11c-7-9.88-13.94-19.78-20.67-29.82-4.27-6.37-3.57-9.15,2.8-13.62,9.46-6.67,10.57-6.42,17.37,2.92S130.45,116.58,137.57,125.55Z"/><path class="cls-1" d="M118.73,138.52c-1.42,1-3.11,1.65-4.07,3.21,0,0,0-.06,0-.08l-.07-.09c.3-2.31,1.75-3.2,3.69-3.49a.6.6,0,0,0,0,.08A3.69,3.69,0,0,0,118.73,138.52Z"/><path class="cls-1" d="M141.35,122.06c-2,.24-3.48,1.14-3.78,3.49-7.12-9-13.09-18.76-19.82-28s-7.91-9.59-17.37-2.92c-6.37,4.47-7.07,7.25-2.8,13.62,6.73,10,13.69,19.94,20.67,29.82-1.94.29-3.39,1.18-3.69,3.49-8.52-10.39-15.7-21.74-23.17-32.87-4.14-6.16-2.68-12,3.14-16.66,1.68-1.36,3.46-2.58,5.26-3.77,9.2-6.14,14.64-5.22,21,3.91C127.67,102.11,134.7,112,141.35,122.06Z"/><path class="cls-1" d="M141.78,122.51c-1.44,1-3.15,1.66-4.12,3.23a1,1,0,0,0,0-.13l-.05-.06c.3-2.35,1.78-3.25,3.78-3.49l0,.06A3.53,3.53,0,0,0,141.78,122.51Z"/><path class="cls-1" d="M452.73,359.29c.93,2.6,2,3.94,5.5,3.1,8.08-2,14,.8,16.72,7.88,1.31,3.38,2.79,3.31,5.51,2.3,8.89-3.28,17.82-6.42,26.74-9.62q37.76-13.57,75.53-27.14c2.77-1,3.78-2.25,2.91-5.51-2-7.65.6-12.91,7.68-16.72,1.63-.87,3.47-1.51,3-4.29,0-.12-.15-.61-.32-1.07-3.25-8.9-6.56-17.77-9.71-26.7-1-2.8-2.07-3.82-5.42-2.95-7.65,2-14-.71-16.57-7.35-1.61-4.08-3.41-3.66-6.65-2.47-21.22,7.76-42.51,15.36-63.78,23-12.51,4.49-25,8.93-37.55,13.44-2.23.8-4.11,1.49-3.07,4.94,2.46,8.09.08,13.4-7.46,17.12-3.09,1.52-3.62,3.12-2.42,6.25C446.7,342,449.65,350.68,452.73,359.29Zm103.68-81.74a2.5,2.5,0,0,1,3.38.95c4.41,5.82,10.23,8.88,17.63,8.48,2.1-.12,2.89,1,3.48,2.73,1.05,3.15,2.31,6.23,3.45,9.34,1.73,4.7,4,8.9-1.74,13.3-3.81,2.91-5.7,8.1-5.17,13.5.17,1.71,0,3.32-2.07,4-8.07,2.88-16.12,5.8-24.65,8.88,10.95-23.35.57-42.87-18.64-52.32C540.38,283.43,548.41,280.53,556.41,277.55Zm-36.74,15.17c13.63-.07,27.76,12.18,27.78,27.59,0,15-13.28,28.85-27.93,27.72-14.4.41-27.48-10.55-27.68-27.37C491.63,303.68,505.88,292.79,519.67,292.72ZM454,331.27a17.43,17.43,0,0,0,7.49-15.41c-.1-3,.93-4.42,3.82-5.38,7.53-2.5,14.93-5.36,23.42-8.46-4.91,10.46-6.07,20.3-2.57,30.47,3.58,10.39,11.08,17,21.38,21.84-8.59,3.13-16.49,5.92-24.31,8.92-2,.78-3.12,0-4.27-1.3-4.45-5.2-9.92-8.25-16.95-8-1.95.08-3-.82-3.61-2.69-1.82-5.34-3.7-10.67-5.8-15.9C451.79,333.36,452.49,332.38,454,331.27Z"/><path class="cls-1" d="M321.37,81.19c14.69,12.18,29.53,24.18,44.1,36.5,2.46,2.08,4,1.83,6.51.59,16.8-8.48,33.65-16.85,50.48-25.27a21.92,21.92,0,0,0,3.06-1.68c1.63-1.17,2.54-2.8,1.62-4.76s-2.49-3.32-4.74-2.88a20.89,20.89,0,0,0-5.09,2c-14.32,7.11-28.7,14.1-42.87,21.5-4,2.07-6.47,1.48-9.7-1.31C352.17,95,339.37,84.45,326.64,73.8A6.92,6.92,0,0,0,321.77,72c-1.64-.18-2.83.83-3.5,2.56C317,77.83,319.39,79.54,321.37,81.19Z"/><path class="cls-1" d="M313.81,128a22.58,22.58,0,0,0,2.53-.93c3.73-1.83,7.45-3.67,11.13-5.58q8.17-4.24,16.28-8.6c2.57-1.38,3.67-3.68,2.33-6.25s-3.76-2.73-6.37-1.31c-3.64,2-7.4,3.77-11.11,5.63-5.49,2.76-11,5.48-16.46,8.3a4.5,4.5,0,0,0-2.51,5.42C310.1,126.64,311.46,127.75,313.81,128Z"/><path class="cls-1" d="M422.35,131.54c-4.29-3.64-8.53-7.34-12.84-11-3.55-3-7.09-6-10.79-8.75a4.23,4.23,0,0,0-6.22.74c-1.75,2.07-1.09,4.06.75,5.68q12,10.47,24,20.84a4.32,4.32,0,0,0,5.14.35,3.93,3.93,0,0,0,2.1-3.93C424.76,133.86,423.68,132.66,422.35,131.54Z"/><path class="cls-1" d="M512.3,323.15c3.61,1.26,7.26.6,10.88.85,2.59.18,4.61,1.28,5.08,3.94s-1.39,3.83-3.4,4.93c-3,1.67-5.56,1.05-7.29-1.77-2.28-3.72-4.72-1.45-6.73-.15-2.91,1.89-.49,4,.71,5.37a10,10,0,0,0,7.91,3.65c2.16,0,3.91.22,4.83,2.53.64,1.62,1.94,1.6,3.31.89s3.19-1.12,2.43-3.1.2-2.89,1.57-4.11c3.51-3.12,5.79-6.62,4-11.82s-6-6.77-10.83-7.27c-2.64-.28-5.33,0-8-.11a4.05,4.05,0,0,1-4.16-3.58,3.79,3.79,0,0,1,2.17-4.55c2-1,3.8-1.32,5.49.4a23.92,23.92,0,0,1,2.26,2.66c1.48,2,3,.39,4.48.09a2.6,2.6,0,0,0,2.41-2.89,10.67,10.67,0,0,0-7.44-7.18c-2.39-.77-5.28-.57-6.52-3.75-.78-2-2.5-.71-3.89-.35-1.58.4-2.55,1.45-1.87,2.87,1.26,2.64-.35,3.91-1.87,5.53C502,312.38,504.27,320.36,512.3,323.15Z"/></svg>